<?xml version="1.0" encoding="utf-8"?>
<!-- Generator: Adobe Illustrator 16.0.4, SVG Export Plug-In . SVG Version: 6.00 Build 0)  -->
<!DOCTYPE svg PUBLIC "-//W3C//DTD SVG 1.1//EN" "http://www.w3.org/Graphics/SVG/1.1/DTD/svg11.dtd">
<svg version="1.1" id="Capa_1" xmlns="http://www.w3.org/2000/svg" xmlns:xlink="http://www.w3.org/1999/xlink" x="0px" y="0px"
	 width="32px" height="30.176px" viewBox="0 0 32 30.176" enable-background="new 0 0 32 30.176" xml:space="preserve">
<g id="Icons">
	<path fill="#666666" d="M31.15,0.714C29.521-1.548,3.197,2.162,1.479,3.609c-1.718,1.447-1.99,19.54-0.543,20.444
		c0.511,0.32,4.069,0.47,8.537,0.459c-0.155,0.543-0.404,1.18-0.803,1.712c-0.788,1.053-2.333,1.576-2.397,1.811
		c-0.136,0.497,0.068,1.854,0.452,2.08c0.385,0.227,15.356-0.227,15.741-0.634c0.384-0.407,0.769-1.809,0.362-2.08
		c-0.641-0.427-3.271-0.489-4.126-3.109c5.633-0.257,10.604-0.731,11.362-1.413C31.874,21.249,32.777,2.976,31.15,0.714z
		 M17.02,21.803c-0.397,1.133-1.542,1.762-2.557,1.405c-1.014-0.357-1.512-1.563-1.114-2.695c0.398-1.133,1.543-1.762,2.557-1.405
		C16.918,19.464,17.417,20.671,17.02,21.803z M28.165,15.912c-1.356,1.267-24.606,2.441-25.33,1.81
		C2.111,17.088,2.654,7.047,3.287,6.052c0.634-0.995,24.788-3.89,25.512-2.714C29.521,4.514,29.521,14.646,28.165,15.912z"/>
</g>
</svg>
